<svg width="198" height="198" viewBox="0 0 198 198" fill="none" xmlns="http://www.w3.org/2000/svg">
<path d="M125.612 0C129.349 0.000151564 132.588 2.58722 133.414 6.23145L137.498 24.2451H190.002C194.42 24.2452 198.002 27.8269 198.002 32.2451V190.001C198.002 194.419 194.42 198.001 190.002 198.001H8C3.58172 198.001 0 194.419 0 190.001V8C3.42444e-07 3.58172 3.58172 0 8 0H125.612ZM77.6201 69.0146C73.6236 66.5246 68.4473 69.3986 68.4473 74.1074V146.888C68.4473 151.597 73.6236 154.471 77.6201 151.98L136.024 115.59C139.794 113.241 139.794 107.754 136.024 105.405L77.6201 69.0146Z" fill="white"/>
</svg>
